<?xml version="1.0" encoding="UTF-8"?>
<svg xmlns="http://www.w3.org/2000/svg" xmlns:xlink="http://www.w3.org/1999/xlink" width="16pt" height="16pt" viewBox="0 0 16 16" version="1.1">
<g id="surface1">
<path style=" stroke:none;fill-rule:nonzero;fill:rgb(0%,0%,0%);fill-opacity:1;" d="M 9.5625 1.023438 C 9.5625 1.09375 9.453125 1.953125 9.445312 1.972656 C 9.4375 1.984375 9.144531 2.40625 8.792969 2.910156 C 8.445312 3.414062 8.15625 3.835938 8.15625 3.84375 C 8.15625 3.859375 9.390625 5.152344 9.871094 5.644531 L 10.035156 5.808594 L 9.976562 5.894531 C 9.875 6.027344 9.695312 6.242188 9.511719 6.4375 C 9.363281 6.601562 8.929688 7.015625 8.847656 7.070312 C 8.820312 7.09375 8.796875 7.070312 8.4375 6.652344 C 7.363281 5.414062 6.257812 4.15625 5.613281 3.457031 C 5.199219 3.003906 4.617188 2.417969 4.515625 2.347656 L 4.445312 2.300781 L 4.347656 1.828125 C 4.292969 1.566406 4.238281 1.304688 4.226562 1.25 L 4.203125 1.144531 L 4.074219 1.109375 C 4.007812 1.09375 3.945312 1.078125 3.941406 1.085938 C 3.9375 1.089844 3.960938 1.308594 3.992188 1.574219 L 4.054688 2.054688 L 3.925781 3.679688 L 3.800781 5.304688 L 4.390625 6.011719 C 4.9375 6.675781 4.976562 6.726562 4.972656 6.777344 C 4.972656 6.8125 4.957031 6.980469 4.9375 7.15625 C 4.851562 8.015625 4.8125 8.945312 4.84375 9.46875 C 4.890625 10.25 4.882812 10.570312 4.796875 11.492188 C 4.761719 11.867188 4.734375 13.109375 4.757812 13.394531 L 4.769531 13.542969 L 4.835938 13.5625 C 4.925781 13.585938 4.9375 13.582031 4.9375 13.550781 C 4.9375 13.5 5.011719 13.367188 5.070312 13.308594 C 5.183594 13.203125 5.324219 13.15625 5.515625 13.15625 C 5.5625 13.15625 5.796875 13.191406 6.035156 13.234375 C 6.40625 13.296875 6.476562 13.3125 6.507812 13.34375 C 6.5625 13.394531 6.582031 13.472656 6.574219 13.59375 C 6.5625 13.71875 6.519531 13.851562 6.414062 14.070312 C 6.367188 14.164062 6.328125 14.242188 6.332031 14.242188 C 6.339844 14.25 6.6875 14.144531 6.703125 14.132812 C 6.730469 14.097656 7.359375 12.871094 7.425781 12.71875 C 7.464844 12.625 7.53125 12.457031 7.578125 12.335938 C 7.65625 12.132812 7.660156 12.109375 7.699219 11.785156 C 7.734375 11.5 7.734375 11.4375 7.71875 11.367188 C 7.628906 10.960938 6.933594 10.734375 5.757812 10.734375 L 5.410156 10.734375 L 5.398438 9.886719 C 5.394531 9.421875 5.386719 8.796875 5.382812 8.496094 C 5.371094 7.96875 5.382812 7.65625 5.421875 7.339844 C 5.433594 7.265625 5.445312 7.203125 5.453125 7.203125 C 5.460938 7.203125 6.355469 8.125 7.441406 9.253906 C 9.378906 11.265625 9.421875 11.316406 9.789062 11.765625 C 10.699219 12.890625 10.703125 12.890625 10.929688 13.003906 C 11.117188 13.097656 11.445312 13.1875 11.703125 13.210938 L 11.808594 13.222656 L 11.816406 13.109375 C 11.820312 13.042969 11.867188 12.363281 11.914062 11.59375 L 12.003906 10.195312 L 12.136719 9.824219 C 12.207031 9.621094 12.265625 9.449219 12.265625 9.4375 C 12.265625 9.429688 12.234375 9.402344 12.203125 9.375 C 12.125 9.3125 12.152344 9.28125 11.925781 9.660156 C 11.832031 9.8125 11.753906 9.9375 11.746094 9.9375 C 11.738281 9.9375 11.441406 9.683594 11.082031 9.371094 L 10.429688 8.804688 L 9.851562 8.167969 C 9.539062 7.820312 9.277344 7.527344 9.277344 7.523438 C 9.277344 7.507812 10.796875 5.859375 10.976562 5.679688 C 11.117188 5.539062 11.140625 5.507812 11.1875 5.398438 C 11.332031 5.046875 11.40625 4.359375 11.328125 4.070312 C 11.265625 3.828125 11.101562 3.535156 10.863281 3.234375 C 10.714844 3.050781 10.332031 2.667969 10.101562 2.46875 C 10.007812 2.390625 9.90625 2.289062 9.878906 2.25 L 9.828125 2.179688 L 9.789062 1.601562 C 9.765625 1.285156 9.746094 1.023438 9.746094 1.023438 C 9.742188 1.019531 9.703125 1.015625 9.652344 1.007812 C 9.570312 0.996094 9.5625 1 9.5625 1.023438 Z M 9.5625 1.023438 "/>
</g>
</svg>
